<mxfile host="f886d473-5fa3-4a14-99e5-f8cddc30ff6d" modified="2020-09-27T11:32:15.545Z" agent="5.0 (Windows NT 6.1; Win64; x64) AppleWebKit/537.36 (KHTML, like Gecko) Code/1.47.3 Chrome/78.0.3904.130 Electron/7.3.2 Safari/537.36" etag="37tzeoGM09_fQD-d4Fw0" version="13.1.3">
    <diagram id="6hGFLwfOUW9BJ-s0fimq" name="re">
        <mxGraphModel dx="822" dy="480" grid="0" gridSize="10" guides="1" tooltips="1" connect="1" arrows="1" fold="1" page="1" pageScale="1" pageWidth="827" pageHeight="1169" math="1" shadow="0">
            <root>
                <mxCell id="0"/>
                <mxCell id="1" parent="0"/>
                <mxCell id="2" value="&lt;table cellpadding=&quot;4&quot; cellspacing=&quot;0&quot; border=&quot;1&quot; style=&quot;font-size: 1em ; width: 100% ; height: 100%&quot;&gt;&lt;tbody&gt;&lt;tr&gt;&lt;td&gt;id&lt;/td&gt;&lt;th style=&quot;text-align: center&quot;&gt;Type&lt;/th&gt;&lt;td&gt;&lt;b&gt;Content&lt;/b&gt;&lt;/td&gt;&lt;th&gt;R&lt;/th&gt;&lt;/tr&gt;&lt;tr&gt;&lt;td&gt;1&lt;/td&gt;&lt;td style=&quot;text-align: center&quot;&gt;&lt;font face=&quot;Courier New&quot;&gt;^&lt;/font&gt;&lt;/td&gt;&lt;td&gt;line start postion&lt;/td&gt;&lt;td&gt;-&lt;/td&gt;&lt;/tr&gt;&lt;tr&gt;&lt;td&gt;2&lt;/td&gt;&lt;td style=&quot;text-align: center&quot;&gt;&lt;font face=&quot;Courier New&quot;&gt;$&lt;/font&gt;&lt;/td&gt;&lt;td&gt;&lt;span&gt;line end postion&lt;/span&gt;&lt;br&gt;&lt;/td&gt;&lt;td&gt;-&lt;/td&gt;&lt;/tr&gt;&lt;tr&gt;&lt;td&gt;3&lt;/td&gt;&lt;td style=&quot;text-align: center&quot;&gt;&lt;font face=&quot;courier new&quot;&gt;.&lt;/font&gt;&lt;/td&gt;&lt;td&gt;any charater&lt;br&gt;&lt;/td&gt;&lt;td&gt;-&lt;/td&gt;&lt;/tr&gt;&lt;tr&gt;&lt;td&gt;4&lt;/td&gt;&lt;td&gt;&lt;div style=&quot;text-align: center&quot;&gt;&lt;span style=&quot;font-size: 1em&quot;&gt;&lt;font face=&quot;Courier New&quot;&gt;[} {^&lt;/font&gt;&lt;/span&gt;&lt;span style=&quot;font-size: 1em ; font-family: &amp;#34;courier new&amp;#34;&quot;&gt;]&lt;/span&gt;&lt;/div&gt;&lt;/td&gt;&lt;td&gt;&lt;ol&gt;&lt;li&gt;&lt;span style=&quot;font-size: 1em&quot;&gt;[...] includes any character in it, &lt;font face=&quot;Courier New&quot;&gt;[0-9]&lt;/font&gt;&lt;/span&gt;&lt;/li&gt;&lt;li&gt;&lt;span style=&quot;font-size: 1em&quot;&gt;&lt;font face=&quot;Courier New&quot;&gt;[^...]&lt;/font&gt;&amp;nbsp;excludies&amp;nbsp;&lt;/span&gt;&lt;span style=&quot;font-size: 1em&quot;&gt;any character in it, &lt;font face=&quot;Courier New&quot;&gt;[^0-9]&lt;/font&gt;&lt;/span&gt;&lt;/li&gt;&lt;li&gt;&lt;span style=&quot;font-size: 1em&quot;&gt;&lt;font face=&quot;Courier New&quot;&gt;&amp;nbsp;-&lt;/font&gt; in &lt;font face=&quot;Courier New&quot;&gt;[]&lt;/font&gt; represents a range characters, &lt;font face=&quot;Courier New&quot;&gt;[a-d]&lt;/font&gt;&lt;/span&gt;&lt;/li&gt;&lt;/ol&gt;&lt;div&gt;to include literal &lt;font face=&quot;Courier New&quot;&gt;^, -, and ]:&lt;/font&gt;&lt;/div&gt;&lt;div&gt;&lt;ol&gt;&lt;li&gt;&lt;font face=&quot;Courier New&quot;&gt;[..^..]&lt;/font&gt; - for &lt;font face=&quot;Courier New&quot;&gt;^&lt;/font&gt;, puts it at any position except the start of&amp;nbsp;&lt;font face=&quot;Courier New&quot;&gt;[]&lt;/font&gt;&lt;/li&gt;&lt;li&gt;&lt;font face=&quot;Courier New&quot;&gt;[-...], [...-]&lt;/font&gt; - for -, puts it at the start or end of &lt;font face=&quot;Courier New&quot;&gt;[]&lt;/font&gt;&lt;/li&gt;&lt;li&gt;&lt;font face=&quot;Courier New&quot; style=&quot;font-size: 1em&quot;&gt;[]...]&lt;/font&gt;&lt;span style=&quot;font-size: 1em&quot;&gt; - for &lt;/span&gt;&lt;font face=&quot;Courier New&quot; style=&quot;font-size: 1em&quot;&gt;]&lt;/font&gt;&lt;span style=&quot;font-size: 1em&quot;&gt;, put it at the start of &lt;/span&gt;&lt;font face=&quot;Courier New&quot; style=&quot;font-size: 1em&quot;&gt;[]&lt;/font&gt;&lt;br&gt;&lt;/li&gt;&lt;/ol&gt;&lt;div&gt;literal &lt;font face=&quot;Courier New&quot;&gt;[&lt;/font&gt; can be put directly in &lt;font face=&quot;Courier New&quot;&gt;[] &lt;/font&gt;needing not special treating&lt;/div&gt;&lt;/div&gt;&lt;/td&gt;&lt;td&gt;-&lt;br&gt;&lt;br&gt;when specifies &lt;font face=&quot;Courier New&quot;&gt;perl = TRUE&lt;/font&gt;, using &lt;font face=&quot;Courier New&quot;&gt;\-&lt;/font&gt; for literal &lt;font face=&quot;Courier New&quot;&gt;-&lt;/font&gt;&lt;/td&gt;&lt;/tr&gt;&lt;tr&gt;&lt;td&gt;5&lt;/td&gt;&lt;td style=&quot;text-align: center&quot;&gt;&lt;font face=&quot;Courier New&quot;&gt;?&lt;/font&gt;&lt;/td&gt;&lt;td&gt;greedy repeating \(\max(1, 0)\) times&lt;/td&gt;&lt;td&gt;-&lt;/td&gt;&lt;/tr&gt;&lt;tr&gt;&lt;td&gt;6&lt;/td&gt;&lt;td style=&quot;text-align: center&quot;&gt;&lt;font face=&quot;Courier New&quot;&gt;*&lt;/font&gt;&lt;/td&gt;&lt;td&gt;greedy repeating&amp;nbsp;\(\max(+\infty, 0)\) times&lt;/td&gt;&lt;td&gt;-&lt;/td&gt;&lt;/tr&gt;&lt;tr&gt;&lt;td&gt;7&lt;/td&gt;&lt;td style=&quot;text-align: center&quot;&gt;&lt;font face=&quot;Courier New&quot;&gt;+&lt;/font&gt;&lt;/td&gt;&lt;td&gt;greedy repeating&amp;nbsp;\(\max(+\infty, 1)\) times&lt;br&gt;&lt;/td&gt;&lt;td&gt;-&lt;/td&gt;&lt;/tr&gt;&lt;tr&gt;&lt;td&gt;8&lt;/td&gt;&lt;td style=&quot;text-align: center&quot;&gt;&lt;font face=&quot;Courier New&quot;&gt;{m, n}&lt;br&gt;{m}&lt;br&gt;{m, }&lt;/font&gt;&lt;/td&gt;&lt;td&gt;greedy&amp;nbsp;repeating&amp;nbsp;&lt;span&gt;\(\max(m, n), m \text{ and }\max(+\infty, m)\) times&lt;/span&gt;&lt;br&gt;&lt;/td&gt;&lt;td&gt;-&lt;/td&gt;&lt;/tr&gt;&lt;tr&gt;&lt;td&gt;9&lt;/td&gt;&lt;td style=&quot;text-align: center&quot;&gt;&lt;font face=&quot;Courier New&quot;&gt;|&lt;/font&gt;&lt;/td&gt;&lt;td&gt;Alternation, matches any part of it&lt;br&gt;&lt;br&gt;&lt;font face=&quot;Courier New&quot;&gt;abc|ABC&amp;nbsp;&lt;/font&gt;- matches &lt;font face=&quot;Courier New&quot;&gt;abc&lt;/font&gt; or &lt;font face=&quot;Courier New&quot;&gt;ABC&lt;/font&gt;&lt;/td&gt;&lt;td&gt;-&lt;/td&gt;&lt;/tr&gt;&lt;tr&gt;&lt;td&gt;10&lt;/td&gt;&lt;td style=&quot;text-align: center&quot;&gt;&lt;font face=&quot;Courier New&quot;&gt;()&lt;/font&gt;&lt;/td&gt;&lt;td&gt;Subgroup, groups characters. It has the highest priority.&lt;br&gt;&lt;h3&gt;Priority&lt;/h3&gt;&lt;ol&gt;&lt;li&gt;repetition takes precedence over concatenation&lt;/li&gt;&lt;li&gt;concatenation precedence over alternation&lt;/li&gt;&lt;li&gt;subgroup override these precedence rules&lt;/li&gt;&lt;/ol&gt;&lt;/td&gt;&lt;td&gt;-&lt;/td&gt;&lt;/tr&gt;&lt;tr&gt;&lt;td&gt;11&lt;/td&gt;&lt;td style=&quot;text-align: center&quot;&gt;&lt;font face=&quot;Courier New&quot;&gt;\&lt;/font&gt;&lt;/td&gt;&lt;td&gt;backslash, for literal &lt;font face=&quot;Courier New&quot;&gt;\&amp;nbsp;&lt;/font&gt;using &lt;font face=&quot;Courier New&quot;&gt;\\&lt;/font&gt;&lt;/td&gt;&lt;td&gt;-&lt;/td&gt;&lt;/tr&gt;&lt;tr&gt;&lt;td&gt;12&lt;/td&gt;&lt;td style=&quot;text-align: center&quot;&gt;&lt;span style=&quot;text-align: left&quot;&gt;Subgroup&lt;br&gt;&lt;/span&gt;Extraction&lt;/td&gt;&lt;td&gt;extract from &lt;font face=&quot;Courier New&quot;&gt;()&lt;/font&gt;&lt;/td&gt;&lt;td&gt;&lt;font face=&quot;Courier New&quot;&gt;\N N=[1-9]&lt;/font&gt;&lt;/td&gt;&lt;/tr&gt;&lt;tr&gt;&lt;td&gt;13&lt;/td&gt;&lt;td style=&quot;text-align: center&quot;&gt;&lt;span style=&quot;text-align: left&quot;&gt;Non-greedy&lt;br&gt;Repeating&lt;/span&gt;&lt;br&gt;&lt;/td&gt;&lt;td&gt;&lt;/td&gt;&lt;td&gt;appending ? after &lt;font face=&quot;Courier New&quot;&gt;?, *, +, {m, n}&lt;br&gt;&lt;br&gt;?? *? +? {m, n}?&lt;/font&gt;&lt;/td&gt;&lt;/tr&gt;&lt;tr&gt;&lt;td&gt;14&lt;/td&gt;&lt;td style=&quot;text-align: center&quot;&gt;&lt;span style=&quot;text-align: left&quot;&gt;Escape Characters&lt;/span&gt;&lt;br&gt;&lt;/td&gt;&lt;td&gt;&lt;ol&gt;&lt;li&gt;&lt;span style=&quot;font-family: &amp;#34;courier new&amp;#34; ; font-size: 1em&quot;&gt;BEL(7): \a&lt;/span&gt;&lt;br&gt;&lt;/li&gt;&lt;li&gt;&lt;font face=&quot;Courier New&quot;&gt;TAB(9): \t&lt;/font&gt;&lt;/li&gt;&lt;li&gt;&lt;font face=&quot;Courier New&quot;&gt;LF(10): \n&lt;/font&gt;&lt;/li&gt;&lt;li&gt;&lt;font face=&quot;Courier New&quot;&gt;FF(12): \f&lt;/font&gt;&lt;/li&gt;&lt;li&gt;&lt;font face=&quot;Courier New&quot;&gt;CR(13): \r&lt;/font&gt;&lt;/li&gt;&lt;li&gt;&lt;font face=&quot;Courier New&quot;&gt;Esc(27): \e&lt;/font&gt;&lt;/li&gt;&lt;/ol&gt;&lt;/td&gt;&lt;td&gt;&lt;div&gt;-&lt;/div&gt;&lt;/td&gt;&lt;/tr&gt;&lt;tr&gt;&lt;td&gt;15&lt;/td&gt;&lt;td style=&quot;text-align: center&quot;&gt;POSIX&lt;/td&gt;&lt;td&gt;&lt;h3&gt;Classes&lt;/h3&gt;&lt;ol&gt;&lt;li&gt;&lt;font face=&quot;Courier New&quot;&gt;[:digit:] - [0-9]&lt;/font&gt;&lt;/li&gt;&lt;li&gt;&lt;font face=&quot;Courier New&quot;&gt;[:xdigit:] - [0-9a-fA-F]&lt;/font&gt;&lt;/li&gt;&lt;li&gt;&lt;font face=&quot;Courier New&quot;&gt;[:lower:] - [a-z]&lt;/font&gt; and locale lower letters&lt;/li&gt;&lt;li&gt;&lt;font face=&quot;Courier New&quot;&gt;[:upper:] - [A-F]&lt;/font&gt; and locale upper letters&lt;/li&gt;&lt;li&gt;&lt;font face=&quot;Courier New&quot;&gt;[:alpha:] - [:lower:]&lt;/font&gt; and &lt;font face=&quot;Courier New&quot;&gt;[:upper:]&lt;/font&gt;&lt;/li&gt;&lt;li&gt;&lt;font face=&quot;Courier New&quot;&gt;[:alnum:] - [:alpha] and [:digit:]&lt;/font&gt;&lt;/li&gt;&lt;li&gt;&lt;font face=&quot;Courier New&quot;&gt;[:cntr:] - 0-31&lt;/font&gt;&amp;nbsp;and &lt;font face=&quot;Courier New&quot;&gt;127(DEL)&lt;/font&gt;&amp;nbsp;in ASCII and other locales&lt;/li&gt;&lt;li&gt;&lt;font face=&quot;Courier New&quot;&gt;[:blank:] - &quot;SPACE and TAB&quot;&lt;/font&gt; and locales&lt;/li&gt;&lt;li&gt;&lt;font face=&quot;Courier New&quot;&gt;[:space:] - &quot;\t, \n, \v, \f, \r, SPACE&quot;&lt;/font&gt; and locales&lt;/li&gt;&lt;li&gt;&lt;font face=&quot;Courier New&quot;&gt;[:punct:] - &quot;`~!@#$%^&amp;amp;*()-_+={}[]|\:;&quot;'&amp;lt;&amp;gt;.,?/&quot;&lt;/font&gt;&lt;/li&gt;&lt;li&gt;&lt;font face=&quot;Courier New&quot;&gt;[:graph:] - [:alnum:]&lt;/font&gt; and &lt;font face=&quot;Courier New&quot;&gt;[:punct:]&lt;/font&gt;&lt;/li&gt;&lt;li&gt;&lt;font face=&quot;Courier New&quot;&gt;[:print:] - [:graph:]&lt;/font&gt; and &lt;font face=&quot;Courier New&quot;&gt;Space&lt;/font&gt;&lt;/li&gt;&lt;/ol&gt;&lt;h3&gt;Shortcuts&lt;/h3&gt;&lt;div&gt;&lt;ol&gt;&lt;li&gt;&lt;font face=&quot;Courier New&quot;&gt;\w,&amp;nbsp;\W - [[:alnum:], [^[:alnum:]]&lt;/font&gt;&lt;/li&gt;&lt;li&gt;&lt;font face=&quot;Courier New&quot;&gt;\d,&amp;nbsp;\D - [[:digit:]], [^[:digit:]]&lt;/font&gt;&lt;/li&gt;&lt;li&gt;&lt;font face=&quot;Courier New&quot;&gt;\s,\S - [[:space:]], [^[:space:]]&lt;/font&gt;&lt;/li&gt;&lt;li&gt;&lt;font face=&quot;Courier New&quot;&gt;\&amp;lt;, \&amp;gt; -&amp;nbsp;&lt;/font&gt;empty character at the start and end of a word&lt;/li&gt;&lt;li&gt;&lt;font face=&quot;Courier New&quot;&gt;\b, \B - &lt;/font&gt;be or not to be&amp;nbsp;empty character at either end of a word&lt;/li&gt;&lt;/ol&gt;&lt;/div&gt;&lt;/td&gt;&lt;td&gt;-&lt;/td&gt;&lt;/tr&gt;&lt;/tbody&gt;&lt;/table&gt; " style="verticalAlign=top;align=left;overflow=fill;fontSize=12;fontFamily=Helvetica;html=1" vertex="1" parent="1">
                    <mxGeometry x="10" y="10" width="882" height="1200" as="geometry"/>
                </mxCell>
            </root>
        </mxGraphModel>
    </diagram>
</mxfile>